<?xml version="1.0" standalone="no"?>
<!DOCTYPE svg PUBLIC "-//W3C//DTD SVG 20010904//EN"
 "http://www.w3.org/TR/2001/REC-SVG-20010904/DTD/svg10.dtd">
<svg version="1.0" xmlns="http://www.w3.org/2000/svg"
 width="512.000000pt" height="512.000000pt" viewBox="0 0 512.000000 512.000000"
 preserveAspectRatio="xMidYMid meet">

<g transform="translate(0.000000,512.000000) scale(0.100000,-0.100000)"
fill="#000000" stroke="none">
<path d="M566 5045 c-111 -55 -142 -94 -111 -142 16 -23 21 -25 66 -20 57 7
89 22 89 42 0 8 18 32 41 52 33 30 39 42 37 67 -4 43 -36 43 -122 1z"/>
<path d="M2345 4835 c-63 -14 -237 -71 -267 -86 -10 -6 -18 -17 -18 -26 0 -18
21 -16 150 12 41 9 130 22 198 29 67 7 127 17 133 23 6 6 9 21 7 34 -3 22 -8
24 -73 26 -38 1 -97 -5 -130 -12z"/>
<path d="M2874 4695 c-5 -21 4 -37 52 -92 33 -36 91 -107 129 -157 39 -50 83
-98 98 -106 26 -14 29 -14 43 5 17 23 11 61 -19 120 -11 22 -69 88 -128 148
-90 88 -115 107 -139 107 -23 0 -31 -5 -36 -25z"/>
<path d="M208 4493 c-133 -138 -191 -255 -139 -282 27 -15 48 9 99 114 22 44
64 109 96 145 31 36 56 73 56 82 0 37 -39 16 -112 -59z"/>
<path d="M1696 4505 c-27 -14 -76 -47 -110 -72 -77 -58 -246 -223 -246 -241 0
-32 33 -21 99 32 38 30 125 93 193 140 136 93 161 116 156 143 -5 27 -38 27
-92 -2z"/>
<path d="M3206 4121 c-3 -5 -15 -62 -26 -127 -11 -64 -34 -163 -50 -218 -44
-151 -43 -196 5 -196 32 0 59 53 91 177 29 116 44 334 24 358 -14 17 -36 20
-44 6z"/>
<path d="M22 4028 c-16 -20 -26 -246 -13 -294 14 -51 46 -94 71 -94 29 0 30
20 4 146 -13 65 -24 144 -24 175 0 60 -18 91 -38 67z"/>
<path d="M1130 3887 c-112 -67 -320 -244 -320 -272 0 -27 19 -24 64 10 49 37
197 137 256 173 19 11 48 35 65 52 23 24 27 34 19 47 -17 26 -26 25 -84 -10z"/>
<path d="M160 3491 c0 -15 93 -70 156 -92 47 -16 75 -20 134 -16 76 5 150 31
150 53 0 30 -26 35 -121 23 -113 -14 -198 -7 -267 20 -29 12 -52 17 -52 12z"/>
<path d="M2833 3158 c-164 -222 -196 -286 -158 -318 23 -19 63 -3 91 38 49 72
185 333 182 350 -2 9 -13 18 -25 20 -18 3 -36 -16 -90 -90z"/>
<path d="M2421 2575 c-108 -101 -232 -294 -250 -388 -11 -61 3 -107 34 -107
34 0 57 38 98 167 43 133 78 205 142 292 61 83 48 103 -24 36z"/>
<path d="M1922 1723 c-180 -194 -306 -533 -198 -533 34 0 52 36 87 173 34 129
63 191 141 308 55 83 64 109 35 109 -6 0 -35 -26 -65 -57z"/>
<path d="M4714 1570 c-29 -12 -54 -49 -54 -81 0 -32 110 -285 190 -436 69
-130 80 -115 -90 -133 -58 -6 -123 -16 -145 -21 -73 -19 -109 -75 -65 -99 33
-17 527 -2 546 17 35 36 29 59 -59 236 -47 95 -116 241 -153 325 -86 195 -107
218 -170 192z"/>
<path d="M4226 1375 c-9 -24 11 -45 43 -45 57 0 131 -32 202 -85 74 -56 96
-64 117 -43 34 34 -18 95 -125 145 -57 27 -89 36 -151 40 -69 5 -80 3 -86 -12z"/>
<path d="M3957 1259 c-30 -17 -217 -230 -269 -307 -52 -77 -57 -105 -21 -110
16 -2 55 30 161 135 148 146 196 208 190 244 -4 30 -38 51 -61 38z"/>
<path d="M1712 828 c-16 -16 -15 -138 2 -219 19 -86 45 -137 94 -181 60 -54
153 -64 167 -18 9 27 2 35 -63 76 -31 20 -69 48 -84 62 -37 34 -68 120 -75
204 -6 71 -20 97 -41 76z"/>
<path d="M3502 670 c-96 -70 -135 -89 -236 -112 -65 -14 -88 -36 -67 -62 17
-21 79 -21 178 0 98 20 183 63 239 121 48 49 63 85 44 108 -24 29 -63 15 -158
-55z"/>
<path d="M2244 249 c-3 -6 -3 -14 2 -18 125 -91 269 -161 373 -182 123 -24
290 6 299 53 2 9 -6 26 -18 38 -21 21 -27 21 -183 15 -206 -9 -302 10 -419 82
-43 26 -45 27 -54 12z"/>
</g>
</svg>
